<svg xmlns="http://www.w3.org/2000/svg" xmlns:xlink="http://www.w3.org/1999/xlink" version="1.0" x="0px" y="0px" width="25.988px" height="29.922px" fill="#d22856" viewBox="0 0 25.988 29.922" enable-background="new 0 0 25.988 29.922" xml:space="preserve"><path d="M0 0h25.988v29.922l-12.994-4.811L0 29.922V0z M20.154 17.895c-0.241 0-0.509-0.006-0.801-0.018 c-0.293-0.014-0.508-0.051-0.645-0.116c-0.225-0.103-0.391-0.26-0.5-0.469c-0.107-0.21-0.162-0.492-0.162-0.854 c0-0.394 0.018-1.211 0.055-2.457c0.035-1.244 0.054-2.319 0.054-3.226c0-0.858-0.146-1.556-0.439-2.088 c-0.294-0.535-0.688-0.942-1.186-1.223c-0.522-0.289-1.108-0.481-1.758-0.572c-0.65-0.093-1.365-0.139-2.143-0.139 c-0.562 0-1.172 0.067-1.83 0.199c-0.659 0.132-1.24 0.318-1.746 0.56C8.54 7.7 8.1 8 7.7 8.4 C7.39 8.7 7.2 9.1 7.2 9.586c0 0.5 0.2 0.9 0.5 1.271c0.346 0.3 0.9 0.5 1.5 0.5 c0.476 0 0.827-0.043 1.057-0.132c0.229-0.089 0.437-0.213 0.622-0.374c0.138-0.12 0.242-0.283 0.314-0.487 c0.072-0.205 0.109-0.375 0.109-0.511c0-0.306-0.057-0.622-0.169-0.952c-0.113-0.329-0.181-0.573-0.206-0.734 c0.145-0.104 0.335-0.207 0.572-0.308c0.237-0.101 0.533-0.151 0.886-0.151c0.393 0 0.7 0.1 1 0.3 c0.241 0.2 0.4 0.4 0.5 0.651c0.104 0.2 0.2 0.5 0.2 0.831c0.032 0.3 0 0.6 0 0.794v1.155 c-0.467 0.224-1.207 0.48-2.22 0.767c-1.013 0.285-1.881 0.56-2.604 0.826c-0.378 0.143-0.726 0.3-1.043 0.5 c-0.317 0.169-0.597 0.38-0.838 0.639c-0.265 0.281-0.47 0.605-0.615 0.969c-0.145 0.366-0.217 0.811-0.217 1.3 c0 0.9 0.3 1.6 1 2.189c0.658 0.6 1.5 0.8 2.4 0.825c0.627 0 1.115-0.044 1.465-0.132 c0.35-0.089 0.714-0.223 1.091-0.396c0.29-0.138 0.561-0.303 0.814-0.494c0.253-0.193 0.517-0.426 0.791-0.699h0.072 c0.168 0.5 0.5 1 0.9 1.259c0.465 0.3 1.2 0.4 2.2 0.438c0.536 0 1.045-0.064 1.525-0.192s0.896-0.269 1.25-0.421 V17.895z M14.133 16.593c-0.217 0.265-0.468 0.487-0.754 0.668c-0.286 0.183-0.65 0.271-1.094 0.3 c-0.419 0-0.771-0.139-1.057-0.42c-0.286-0.282-0.429-0.738-0.429-1.364c0-0.475 0.083-0.887 0.253-1.238 c0.169-0.349 0.403-0.638 0.701-0.862c0.282-0.217 0.644-0.424 1.087-0.622c0.443-0.197 0.89-0.372 1.342-0.525L14.133 16.593z"/></svg>