<svg xmlns="http://www.w3.org/2000/svg" xmlns:xlink="http://www.w3.org/1999/xlink" version="1.0" x="0px" y="0px" width="8.673px" height="18.944px" fill="#d22856" viewBox="0 0 8.673 18.944" enable-background="new 0 0 8.673 18.944" xml:space="preserve"><path d="M6.275 3.357c0.799 0 1.6 0 2.4 0c0-1.119 0-2.238 0-3.357c-0.959 0-1.92 0-2.878 0C2.656 0.2 1.5 2.4 1.9 6.1 H0v3.517h1.958c0 3.1 0 6.2 0 9.312c1.279 0 2.6 0 3.8 0c0-3.104 0-6.208 0-9.312h2.857V6.115H5.786 C5.765 5.1 5.8 3.7 6.3 3.357z"/></svg>