<svg xmlns="http://www.w3.org/2000/svg" xmlns:xlink="http://www.w3.org/1999/xlink" version="1.0" x="0px" y="0px" width="26.096px" height="33.803px" fill="#d22856" viewBox="0 0 26.096 33.803" enable-background="new 0 0 26.096 33.803" xml:space="preserve"><g><path d="M13.047 0L0 1.456v24.475l13.047 7.835v0.037l13.049-7.872V1.557L13.047 0z M24.037 24.745l-10.989 6.622v-7.385 l-6.369-2.858v-0.021l6.373-2.816v-0.02h0.001v0.011l6.366 2.814v-0.006l0.01 0.006v-1.234l-6.366-2.813l-0.003 0.003l-0.007-0.003 v0.011h-0.001v-0.003L6.679 19.87v-1.235l0 0l5.848-2.584l-1.385-0.622l-4.463 1.973v-1.234l3.077-1.36l-1.385-0.622l-1.692 0.7 v-1.234l0.306-0.135l-3.73-1.674l9.793-4.248V2.084l10.989 1.321V24.745z"/><polygon points="19.4,17.4 15,15.4 13.6,16 19.4,18.6"/><polygon points="19.4,14.9 17.7,14.2 16.3,14.8 19.4,16.2"/></g></svg>