
<svg xmlns="http://www.w3.org/2000/svg" height="301.8" width="260.6" version="1.1" viewBox="0 0 260.6 301.8"><path fill="#dedede" d="m106.3 0c-1.5 0-2.9 0.2-4.3 0.6 0 0 0 0 0 0-7.3 1.9-12.6 8.5-12.6 16.4 0 9.4 7.6 17 17 17h7v8.3c-43.8 5.7-80.6 33.2-99.6 71.2-3.8 7.6-6.9 15.5-9.2 23.8-3 10.9-4.6 22.4-4.6 34.2 0 56.3 35.8 104.2 85.9 122.4 13.9 5 28.8 7.9 44.4 7.9 6.5 0 12.9-0.5 19.1-1.4 0.7-0.1 1.3-0.3 2-0.4 18.3-3 35.4-9.8 50.4-19.6 20.6-13.6 37.1-32.8 47.3-55.4 7.4-16.4 11.6-34.4 11.6-53.5 0-11.5-1.5-22.7-4.3-33.3h0c-4.8-18.1-13.3-34.6-24.7-48.7l7.5-7.5c5.3-5.3 5.3-13.9 0-19.2-2.9-2.9-6.8-4.1-10.6-3.8-3.1 0.2-6.3 1.4-8.6 3.8l-7.5 7.5c-7.9-6.4-16.7-11.8-26-16.3-8.4-4-17.3-7.2-26.5-9.3-0.1 0-0.2 0-0.3-0.1-4-0.9-8.1-1.7-12.2-2.3v-8.3h6c9.4 0 17-7.6 17-17 0-9.4-7.6-17-17-17h-47.1zm24.1 75.2c4.2 0 8.3 0.3 12.3 0.8 12.6 1.6 24.7 5.7 35.6 12 0.1 0.1 0.2 0.2 0.4 0.2 7.1 4.2 13.8 9.1 19.8 15.1 1.4 1.4 2.7 2.9 4 4.4 0.1 0 0.1 0.1 0.1 0.2 2.6 3 5 6.2 7.3 9.5 1.4 2.1 2.9 4.3 4.1 6.5 7.7 13.5 12.1 28.7 12.6 44.7 0 1 0.1 1.9 0.1 2.9 0 25.7-10 49.9-28.2 68.1-12.4 12.4-27.6 20.9-44.2 25.1-5.7 1.4-11.6 2.2-17.6 2.6-0.8 0.1-1.7 0.2-2.5 0.2-1.3 0.1-2.5 0.3-3.8 0.3-3.5 0-7-0.3-10.5-0.6-21.7-2.4-41.9-11.9-57.6-27.6-18.2-18.2-28.2-42.4-28.2-68.1 0-2 0.2-4 0.3-6 1.5-23.5 11.2-45.3 27.9-62.1 2.1-2.1 4.3-4 6.5-5.9v0c17.3-14.4 38.8-22.3 61.6-22.3zM130.3 66.1"/><path fill="#d22856" d="m130.3 66.1c-57.9 0-105 47.1-105 105 0 57.9 47.1 105 105 105 57.9 0 105-47 105-105 0-57.9-47.1-105-105-105zm0 11.5c51.7 0 93.5 41.8 93.5 93.5s-41.8 93.5-93.5 93.5-93.5-41.8-93.5-93.5c0-51.7 41.8-93.5 93.5-93.5zm-30.6 54.2c-3.6 0-6.8 0.4-9.7 1.1-2.9 0.7-5.5 1.7-8 3-2.4 1.3-5.5 3.6-9.3 6.7l8.7 10.3c3-2.5 5.9-4.4 8.6-5.7s5.6-2 8.5-2c2.8 0 5 0.7 6.7 2.2 1.7 1.5 2.5 3.7 2.5 6.8 0 2-0.4 4-1.1 5.9-0.8 1.9-2 4-3.7 6.2-1.7 2.2-5.4 6.2-11 11.9l-19 19.2v11.1h52.8v-13.4h-32.9v-0.7l9.7-9.2c6.5-5.9 11-10.5 13.5-13.7 2.6-3.2 4.5-6.3 5.7-9.3 1.2-3.1 1.8-6.4 1.8-9.8 0-4-1-7.5-3-10.6-2-3.1-4.8-5.5-8.4-7.2-3.6-1.7-7.8-2.6-12.5-2.6zm64.3 1.1-33.1 48.8 0 11.1 32.3 0 0 15.7 15.6 0 0-15.7 9.1 0 0-12.4-9.1 0 0-47.5-14.7 0zm-0.6 18.3 0.4 0c-0.1 0.7-0.2 3-0.4 7.1-0.2 4.1-0.2 7.2-0.2 9.3v12.8h-18.2l13.8-20.9c1.8-2.7 3.3-5.4 4.6-8.3z"/></svg>