<svg xmlns="http://www.w3.org/2000/svg" xmlns:xlink="http://www.w3.org/1999/xlink" version="1.0" x="0px" y="0px" width="17.5px" height="14.663px" fill="#d22856" viewBox="0 0 17.5 14.663" enable-background="new 0 0 17.5 14.663" xml:space="preserve"><g><g><path fill-rule="evenodd" clip-rule="evenodd" d="M11.283 0.153c1.736-0.485 3.1 0.3 3.7 1.2 c0.694-0.226 1.372-0.47 2.072-0.691c-0.004 0.841-0.538 1.478-0.883 1.727C16.861 2.5 17.5 1.9 17.5 1.9 c-0.175 0.976-1.035 1.746-1.611 1.977C15.65 10.4 12.6 14.8 5.5 14.66c-0.538 0 0.1 0-0.46 0 c-0.422 0-4.29-0.45-5.047-1.843c2.341 0.2 4.011-0.412 4.835-1.15c-0.989-0.293-2.761-0.464-3.07-2.881 c0.362 0.1 0.6 0.2 1.2 0.117C1.757 8.1 0.4 7.4 0.5 5.218c0.294 0.3 1.1 0.5 1.4 0.5 c-0.725-0.235-2.03-3.281-0.921-4.836C2.794 2.7 4.8 4.4 8.3 4.528C8.506 2.3 9.5 0.8 11.3 0.153z"/></g></g></svg>